<?xml version="1.0" encoding="utf-8"?>
<!-- Generator: Adobe Illustrator 26.0.2, SVG Export Plug-In . SVG Version: 6.00 Build 0)  -->
<svg version="1.1" xmlns="http://www.w3.org/2000/svg" xmlns:xlink="http://www.w3.org/1999/xlink" x="0px" y="0px"
	 viewBox="0 0 992.1 850.4" style="enable-background:new 0 0 992.1 850.4;" xml:space="preserve">
<style type="text/css">
	.st0{display:none;}
	.st1{display:inline;fill:#B3B3B3;}
</style>
<g id="Layer_1" class="st0">
	<rect x="-4.5" class="st1" width="996.6" height="850.4"/>
</g>
<g id="Layer_2">
</g>
<g id="Layer_3">
	<g>
		<g>
			<path d="M409.7,330.3c23.7-17,46.5-35.2,68.7-54.2c23.7-20.3,46.8-41.5,67.5-64.9c8.5-9.6,16.7-19.6,23.6-30.4
				c5-7.8,9.8-16.6,11.5-25.8c0.7-4.2,1.1-8.8-0.4-12.8c-2.5-6.9-8.9-10.1-15.8-10.8c-7-0.7-14.5,0.8-21.1,3.1
				c-8.9,3.2-17.6,7.4-26.2,11.3c-37,16.9-72.7,36.6-106.7,58.7c-34.5,22.4-67.3,47.4-98.2,74.6c-29.3,25.8-59.2,53.4-79.5,87.2
				c-5,8.3-9.3,17.1-12.8,26.1c-2.9,7.4-5.9,15.6-6.6,23.6c-0.5,6.5,3.6,11.4,9.6,13.1c7.3,2.1,15.6,0.7,22.8-0.6
				c10.6-1.9,21.1-4.9,31.4-8.1c25.2-7.9,49.8-17.3,74.5-26.5c11.1-4.1,22.3-8.2,33.6-12c4.4-1.5,8.9-2.9,13.4-4.2
				c5.8-1.6,12.3-3.6,18.1-1.1c5.2,2.3,10.4,6.9,13.5,11.6c4,6.2,6,13.6,6.6,21c1.6,18.1-3.3,35.9-10.1,52.5
				c-10.7,26-26.2,50-43.2,72.3c-19.2,25.2-41,48.4-64.2,70c-22.9,21.3-47.4,40.9-73.5,58.2c-22.6,15-46.5,28.6-72,38
				c-10.5,3.9-21.3,7-32.3,8.8c-4,0.6-9,1.1-13.7,1.2c-2.3,0-4.6,0-6.9-0.2c-2.4-0.2-3.6-0.3-5.3-0.6c-1.5-0.3-3-0.8-4.4-1.3
				c-0.4-0.1-1.1-0.4-0.2-0.1c-0.4-0.2-0.8-0.4-1.2-0.5c-0.8-0.4-1.6-0.8-2.4-1.3c-0.7-0.4-1.4-0.8-2.1-1.3
				c-0.4-0.3-0.8-0.5-1.2-0.8c-0.2-0.1-0.7-0.5,0,0c-0.2-0.1-0.4-0.3-0.6-0.5c-1.5-1.3-2.9-2.6-4.2-4.1c-0.3-0.4-0.7-0.8-1-1.2
				c-0.6-0.7,0,0.1-0.4-0.5c-0.6-0.9-1.3-1.8-1.8-2.7c-0.6-0.9-1.1-1.8-1.5-2.7c-0.6-1.1-0.9-2-1.1-2.5c-1.8-4.8-2.5-8.8-2.5-13.7
				c0-14.2,6.5-27.8,14.1-39.5c11-17,25.7-31.9,40-46.1c28.6-28.5,60.4-53.8,94.4-75.5c16.3-10.4,33.1-20,50.3-28.8
				c5.2-2.6,0.6-10.4-4.5-7.8c-35.8,18.3-69.7,40.1-101.1,65.1c-15.9,12.7-31.1,26.2-45.5,40.6c-14.6,14.5-29.2,29.6-40.6,46.8
				c-13.3,20-23.9,48.7-8.5,70.6c4.8,6.8,11.3,12.1,19.1,15.1c7.7,2.9,16.8,2.8,24.9,2.2c23.3-1.8,45.8-10.2,66.8-20.2
				c26.3-12.5,51.1-28.5,74.4-45.9c25.7-19.2,49.9-40.3,72.3-63.2c21.8-22.3,42-46.2,59.3-72.1c7.9-11.7,15.1-23.9,21.4-36.5
				c6.9-14,13.1-28.7,16.1-44c3.3-16.8,3.9-36.2-4.9-51.5c-3.5-6.1-8.5-10.6-14.2-14.5c-6.5-4.5-13.9-5.1-21.5-3.6
				c-10,1.9-19.9,5.6-29.5,9c-11.7,4.1-23.4,8.5-35.1,12.8c-24.4,9.1-48.7,18.3-73.7,25.5c-5.1,1.5-10.3,2.8-15.5,4
				c-2.3,0.5-4.7,1-7,1.4c-1.1,0.2-2.1,0.3-3.2,0.5c-0.2,0-0.9,0.1,0,0c-0.3,0-0.5,0.1-0.8,0.1c-0.5,0.1-1,0.1-1.6,0.2
				c-1.8,0.2-3.7,0.3-5.6,0.3c-0.8,0-1.6,0-2.4-0.1c-0.3,0-0.7-0.1-1-0.1c-1.3-0.1,0.1,0.1-0.4,0c-1.3-0.2-2.4-0.5-3.6-0.9
				c1.4,0.5-0.1-0.1-0.6-0.4c-1.3-0.7,0.6,0.5-0.5-0.4c-1.1-0.9,0.3,0.7-0.3-0.4c-0.6-1.1,0.2,0.9-0.2-0.6c-0.5-1.5-0.2,0.5-0.1-0.6
				c0-0.6,0-1.3,0.1-1.9c0,0-0.2,0.9,0,0c0.3-1,0.4-2,0.7-3c0.6-2.4,1.2-4.9,1.9-7.3c1.3-4.5,2.9-8.9,4.7-13.2
				c7.3-17.8,18.2-34,30.5-48.7c12.5-15,26.4-28.6,40.7-41.9c15.1-14.1,30.8-27.7,46.9-40.6c31.8-25.5,65.5-48.7,100.7-69.3
				c17.5-10.3,35.4-19.9,53.7-28.8c9-4.4,18.1-8.7,27.3-12.8c7.7-3.4,15.4-7.3,23.7-9c5.1-1.1,12.6-2,16.7,1
				c0.9,0.7,1.5,1.4,1.9,2.4c0.2,0.4,0.3,1.2,0.5,1.7c0.3,1.2,0-0.6,0.1,0.7c0.1,1.7,0.1,3.4-0.1,5.1c-0.1,0.7,0.1-0.8,0-0.1
				c0,0.2-0.1,0.5-0.1,0.7c-0.1,0.4-0.2,0.8-0.2,1.3c-0.2,1-0.5,2-0.8,3c-0.3,1-0.6,1.9-0.9,2.9c-0.2,0.5-0.3,0.9-0.5,1.4
				c-0.1,0.3-0.2,0.5-0.3,0.8c-0.3,0.7,0.1-0.1-0.1,0.3c-2,4.6-4.4,8.9-7.1,13.1c-14.6,23.2-34.6,43.1-54.2,61.9
				c-22.9,21.9-47.2,42.5-72.1,62c-10.1,8-20.4,15.7-30.8,23.3c-2,1.4-2.9,3.9-1.6,6.2C404.6,330.6,407.7,331.7,409.7,330.3
				L409.7,330.3z"/>
		</g>
	</g>
	<g>
		<g>
			<path d="M470.2,443.8c-6.8,4.6-13.1,10-18.1,16.4c-4.1,5.2-7.9,11.2-9.1,17.8c-1,5.6-0.2,11.7,4.1,15.8
				c4.8,4.6,12.2,5.7,18.6,5.5c12.3-0.5,24.5-5.9,35.4-11.2c14.6-7.1,28.4-15.9,41.2-25.8c12.2-9.5,23.8-20.2,32.5-33
				c4.9-7.2,10.3-17.4,3.1-25c-5.1-5.3-13.2-5.1-19.9-4c-7.7,1.2-15.2,3.9-22.4,6.8c-6,2.4-11.8,5.1-17.5,8.1
				c-6.2,3.3-12.3,7-17.8,11.4c-4.1,3.2-8.8,7.5-9.9,12.8c-0.8,4.2,1.2,9.3,5.6,10.6c2.5,0.7,5.2,0.1,7.6-0.5
				c7.7-2.1,15.1-5.9,22.2-9.4c23.4-11.8,46-25.3,68.4-38.8c22.7-13.6,45.2-27.6,67.7-41.4c6.1-3.7,12-7.4,17.6-11.8
				c6.2-4.9,12.1-10.1,17.9-15.3c16-14.5,31.4-29.7,46.5-45c16.6-16.8,32.8-33.9,48.8-51.2c12.8-13.9,25.5-28,37.4-42.6
				c3.8-4.6,7.5-9.3,10.8-14.2c2-3.1,5-7.8,1.7-11.1c-3.4-3.5-8.7-0.2-11.7,2.1c-7.5,5.7-14.5,12.2-21.4,18.6
				c-17.1,15.8-33.4,32.4-49.4,49.3c-19,20.1-37.6,40.6-55.9,61.3c-20,22.6-39.7,45.4-59.4,68.2c-20,23.4-39.9,46.8-59.8,70.3
				c-18.9,22.3-37.8,44.6-56.7,66.8c-16.7,19.6-33.6,39.1-50.7,58.4c-13.5,15.2-27.1,30.3-41.4,44.8c-5.1,5.2-10.4,10.4-15.8,15.3
				c0.7-0.4,1.3-0.8,2-1.2c-0.8,0.2,0.4-0.1,0.7-0.1c-0.8,0,0.8,0.2,0.8,0.2c1.6,0.4,3,2.2,3,3.9c0-0.6-0.3,1.6-0.1,0.9
				c0.2-0.8-0.8,1.2-0.3,0.6c0.2-0.3,0.4-0.7,0.6-1c0.1-0.2,0.3-0.4,0.4-0.6c-0.4,0.7-0.7,0.9-0.1,0.1c0.4-0.5,0.9-1.1,1.3-1.6
				c1.2-1.4,2.5-2.7,3.8-4.1c8.6-8.9,17.8-17.2,27-25.4c13.6-12.3,27.4-24.4,41.3-36.4c16.3-14.1,32.7-28,49.2-41.9
				c16.9-14.2,33.8-28.3,50.9-42.2c15.4-12.6,30.8-25.1,46.5-37.4c3.4-2.7,6.8-5.3,10.2-8c0.8-0.6,1.5-1.2,2.3-1.8
				c0.3-0.3,0.7-0.5,1-0.8c-1,0.8,0.5-0.4,0.7-0.6c1.5-1.2,3.1-2.4,4.6-3.5c5.3-4,10.6-8,16-11.9c3.8-2.7,7.6-5.5,11.6-8
				c1.3-0.8,2.6-1.6,4-2.4c0.1-0.1,1.5-0.6,1.5-0.7c0,0-1.4,0.7-0.4,0.2c0.2-0.1,0.4-0.1,0.5-0.2c0.7-0.4-1.3,0.1-0.7,0.1
				c0.8,0-1.2-0.2-0.9-0.1c-1.7-0.5-3-2.2-3-3.9c0,0.7,0.3-1.5,0.1-0.8c-0.2,0.9,0-0.5,0.3-0.6c-0.1,0-0.6,1.1-0.6,1.2
				c-0.1,0.2-0.3,0.5-0.5,0.7c-0.4,0.7,0.6-0.6,0.1-0.2c-0.5,0.5-1,1.1-1.5,1.6c-2,2.2-4,4.3-6.1,6.4c-5.2,5.4-10.4,10.7-15.7,16
				c-13.3,13.4-26.5,26.8-39.4,40.6c-6.6,7.1-13.1,14.3-19.5,21.6c-3.4,4-7.3,7.9-10.1,12.3c-2.4,3.7-1.8,8.8,3,10.1
				c3.7,0.9,7.9-0.4,11.4-1.4c13.5-4,26.5-10.1,39.2-15.9c17.2-8,34.2-16.5,50.9-25.4c15.8-8.5,31.5-17.2,46.7-26.9
				c5.7-3.6,11.3-7.3,16.6-11.4c3.8-2.9,7.7-5.9,10.5-9.9c2.4-3.4,2.7-8.3-1.4-10.7c-4-2.3-9.4-1.4-13.7-0.7c-1.6,0.2-3,0.9-4.5,1.5
				c-2.7,1.1-5.4,2.3-8.1,3.5c-4.3,2-8.6,4.1-12.7,6.3c-6.7,3.7-13.1,8-19.1,12.9c-10.4,8.5-18.7,19.2-26.9,29.8
				c-4.6,5.9-8.3,12.7-9.9,20c-1.4,6.5-1.1,14.2,4.2,19c7.3,6.7,18.6,4.8,27.4,3c11.2-2.3,22.2-6,33-9.9c14-5.1,27.7-10.8,41.3-16.9
				c29-12.9,57.5-27.1,85.1-42.9c11-6.3,21.9-12.8,32.3-19.9c4.8-3.2,0.3-11-4.5-7.8c-22.8,15.5-47.3,28.7-71.9,41.2
				c-26.6,13.5-53.8,26.1-81.7,36.5c-10.6,4-21.4,7.7-32.5,10.2c-2.2,0.5-4.4,1-6.6,1.4c-0.5,0.1-1,0.2-1.5,0.2
				c-0.5,0.1-1.4,0.2-0.4,0.1c-1,0.1-2,0.2-3,0.3c-1.6,0.1-3.1,0.2-4.7,0.1c-0.3,0-0.6-0.1-0.9-0.1c-1.1,0,0.9,0.3,0,0
				c-1.6-0.4-2.9-0.6-4.1-1.3c-0.8-0.4-1.7-1.3-1.9-1.7c-0.2-0.2-0.8-1.5-0.5-0.8c-0.3-0.7-0.5-1.4-0.6-2.1
				c-0.2-0.9-0.1-0.4-0.1-0.2c-0.1-0.4-0.1-0.8-0.1-1.2c0-0.7,0-1.5,0-2.2c0.1-1.1,0.3-2.5,0.7-4c1.7-6.4,5.2-12.1,9.2-17.2
				c7.9-10,15.9-20,25.8-28c5.7-4.6,12.1-8.5,18.6-11.9c4.2-2.2,8.5-4.3,12.8-6.2c2.1-0.9,4.3-2.1,6.5-2.8c0.5-0.1,0.9-0.2,1.3-0.3
				c1.1-0.3-1,0.1,0.1,0c2-0.2,4-0.4,6.1-0.3c0.2,0,0.4,0.1,0.6,0c0.7,0-1.3-0.3-0.6-0.1c0.3,0.1,0.6,0.2,0.9,0.2
				c1.1,0.2-0.5-0.3-0.3-0.1c0.9,0.5-0.6-0.6-0.3-0.3c0.6,0.6-0.7-1-0.3-0.5c0.3,0.5-0.5-1.3-0.3-0.8c0.1,0.2,0.3,0.7,0-0.3
				c-0.3-0.7-0.1-0.6-0.1-0.3c0,0.7,0.1-0.9,0.1-0.9c0,0.2-0.1,0.5-0.2,0.7c0.7-1.8,0-0.1-0.4,0.5c-0.1,0.1-0.2,0.2-0.3,0.4
				c-0.4,0.7,0.8-1,0.3-0.3c-0.3,0.3-0.5,0.6-0.8,0.9c-1.3,1.5-2.9,2.8-4.4,4.1c-0.9,0.8-1.9,1.6-2.9,2.3c0.3-0.2,0.6-0.5-0.1,0
				c-0.2,0.2-0.5,0.4-0.7,0.5c-0.6,0.5-1.3,0.9-1.9,1.4c-12.3,8.9-25.5,16.7-38.8,24.2c-16.2,9.2-32.6,17.9-49.3,26.2
				c-8,4-16,7.8-24,11.5c-3.6,1.7-7.2,3.3-10.8,4.9c-1.7,0.7-3.4,1.5-5.1,2.2c1.3-0.5-0.3,0.1-0.6,0.2c-0.4,0.1-0.7,0.3-1.1,0.4
				c-0.8,0.3-1.7,0.7-2.5,1c-5.2,2.1-10.4,4.1-15.8,5.7c-1.8,0.5-3.6,1-5.5,1.3c-1.3,0.2,1,0,0.1,0c-0.3,0-0.6,0.1-1,0.1
				c-0.2,0-0.5,0-0.7,0c-0.9,0.1,1.3,0.3,0.4,0c-0.9-0.2,1,0.5,0.6,0.3c-0.4-0.2-0.4-0.5,0.7,0.5c-0.4-0.3-0.2-0.4,0.5,0.7
				c0.4,0.7,0.4,1.5,0.3,2.4c0-0.2,0.1-0.4,0.2-0.6c-0.3,0.9-0.6,1-0.1,0.3c0.2-0.3,0.4-0.5,0.5-0.8c0.6-1.1-0.8,0.9,0.1-0.1
				c5.1-5.7,9.9-11.8,15-17.6c6.3-7.1,12.8-14.1,19.4-21c12.2-12.8,24.6-25.3,37-37.9c4.8-4.8,9.6-9.7,14.3-14.6
				c2.3-2.4,5-4.9,6.7-7.8c2.1-3.5,1.5-8.9-3.7-9c-2.5-0.1-5,1.5-7.1,2.7c-8.4,4.9-16.2,10.9-23.9,16.8c-13,9.8-25.8,19.9-38.5,30
				c-15.5,12.4-31,25-46.3,37.6c-16.5,13.6-33,27.4-49.4,41.2c-15.6,13.2-31.2,26.5-46.6,39.9c-12.8,11.1-25.5,22.3-38.1,33.8
				c-8.2,7.5-16.5,15-24.1,23c-2,2.1-4.2,4.4-5.8,6.9c-2.1,3.5-0.8,8.5,4,8.4c3.4-0.1,6-3.5,8.3-5.7c2.8-2.6,5.5-5.3,8.2-8
				c6.4-6.4,12.7-13,18.9-19.7c15.5-16.7,30.5-33.7,45.5-50.9c17.9-20.6,35.7-41.4,53.4-62.2c19.5-22.9,38.9-45.9,58.3-68.8
				c19.8-23.3,39.7-46.6,59.7-69.7c19.2-22.2,38.6-44.3,58.3-66c17.5-19.3,35.2-38.3,53.4-56.8c14.6-14.8,29.6-29.4,45.6-42.7
				c0.8-0.7,1.7-1.4,2.5-2.1c0.4-0.3,0.8-0.7,1.2-1c0.1-0.1-0.7,0.5,0.2-0.1c0.8-0.5,1.5-1,2.3-1.4c0.3-0.1,0.6-0.2,0.8-0.4
				c-0.1,0.1-1.2,0.3-0.2,0.1c1-0.1-1.1,0.1-0.6,0.1c0.1,0-1.6-0.4-1.8-0.5c-1.9-1.1-2-2.9-1.9-4.2c0,0.2-0.1,0.4-0.2,0.6
				c-0.3,1,0.6-1.2,0.1-0.2c-0.8,1.5-1.7,2.9-2.6,4.3c-0.7,1-1.4,2-2.1,2.9c-0.4,0.5-0.7,1-1.1,1.5c-0.3,0.4-1.8,2.3-0.8,1.1
				c-2.1,2.6-4.2,5.3-6.3,7.8c-5.6,6.8-11.3,13.4-17.1,19.9c-14.7,16.7-29.9,33-45.3,49.1c-16,16.8-32.3,33.3-49,49.4
				c-7.1,6.9-14.4,13.7-21.8,20.3c-3.1,2.7-6.1,5.5-9.3,8.1c-1.4,1.2-2.9,2.4-4.3,3.6c-0.6,0.5-1.2,1-1.9,1.5
				c-0.3,0.3-0.6,0.5-1,0.8c-1.1,0.8,0.4-0.3-0.3,0.3c-5.8,4.4-12,8-18.2,11.8c-10.8,6.6-21.5,13.2-32.2,19.8
				c-24.1,14.8-48.3,29.5-72.9,43.4c-10.1,5.7-20.3,11.4-30.8,16.5c-2,1-4.1,2-6.1,2.9c-0.9,0.4-1.8,0.8-2.6,1.2
				c-0.2,0.1-0.5,0.2-0.7,0.3c0.1,0,0.9-0.4,0.2-0.1c-0.5,0.2-0.9,0.4-1.4,0.6c-2.7,1.1-5.4,2-8.2,2.6c-1.4,0.3,1,0.1-0.4,0.1
				c-0.2,0-0.4,0-0.6,0c-0.5,0-0.6-0.3-0.1,0c0.5,0.3,0.5,0.1,0.1,0c-0.7-0.2,1.1,0.6,0.6,0.3c-0.7-0.4,0.6,0.5,0.5,0.4
				c0,0-0.1-0.1-0.1-0.1c-0.1-0.1-0.1-0.2-0.2-0.2c0.4,0.5,0.4,0.6,0.2,0.2c0-0.1-0.3-0.4-0.3-0.5c0,0.2,0.2,1,0.2,0.3
				c0-1.2,0.1,0.6,0-0.2c0-0.2,0.1-1,0-0.2c-0.2,0.9,0.1-0.2,0.1-0.3c0.1-0.1,0.2-0.5,0.2-0.6c-0.2,0.7-0.2,0.3,0.1-0.1
				c0.3-0.4,0.5-0.8,0.7-1.2c0.6-1,0-0.1,0.6-0.8c1-1.1,1.9-2.1,3-3c4.7-4.2,10.4-7.7,16.1-10.8c3.1-1.7,6.2-3.3,9.3-4.8
				c1.3-0.6,2.6-1.2,4-1.8c1.6-0.7,2.2-1,3.3-1.4c7.1-2.9,14.4-5.6,21.9-7c2.8-0.5,6.7-0.9,8.9-0.5c1.6,0.3,2.1,0.4,3.3,1.2
				c0.5,0.3,1.1,0.8,1.4,1.7c1.6,3.6-2.1,8.5-3.9,11.3c-1.8,2.8-3.8,5.5-5.9,8.1c-4.9,6-10.5,11.4-16.3,16.6
				c-12.1,10.7-25.6,19.9-39.7,27.7c-11.3,6.3-23.4,12.2-36.2,14.6c-0.6,0.1-1.2,0.2-1.8,0.3c-0.7,0.1,0.7-0.1,0,0
				c-0.3,0-0.6,0.1-0.9,0.1c-1.2,0.1-2.3,0.2-3.5,0.1c-1.5,0-3.2-0.1-4.4-0.3c-0.8-0.1-1.5-0.3-2.2-0.5c-0.3-0.1-1.9-0.7-1.3-0.4
				c-0.5-0.2-1-0.5-1.5-0.8c0,0-1.1-0.7-0.5-0.3c0.5,0.4-0.4-0.4-0.4-0.4c-0.4-0.3-0.7-0.7-1-1.1c0.6,0.8-0.1-0.3-0.3-0.6
				c0,0-0.5-1.1-0.2-0.4c0.3,0.6-0.1-0.4-0.1-0.5c-0.1-0.5-0.3-0.9-0.3-1.4c0.2,1.1,0-0.6,0-0.9c0-0.6,0-1.2,0.1-1.8
				c0-0.2,0.1-0.9,0-0.1c0-0.3,0.1-0.6,0.2-0.8c0.2-0.7,0.3-1.3,0.5-2c0.3-1.2,0.9-2.5,1.2-3.2c1.4-3,3.2-5.9,5.2-8.5
				c4.5-5.8,10.1-10.8,16.1-14.8C479.5,448.3,475,440.5,470.2,443.8L470.2,443.8z"/>
		</g>
	</g>
</g>
<g id="Layer_4">
</g>
</svg>
